<?xml version="1.0" encoding="UTF-8"?>
<svg version="1.1" xmlns="http://www.w3.org/2000/svg" width="600" height="416">
<path d="M0 0 C2.32784467 0.00455859 4.65568998 0.00879637 6.98353577 0.01274109 C13.15770419 0.02512248 19.33182102 0.045261 25.50595856 0.06816864 C29.31457719 0.08205306 33.12319813 0.09421365 36.93182373 0.10601807 C51.13168728 0.15174084 65.33124177 0.21968134 79.53084373 0.31776619 C86.13114788 0.36319003 92.73138095 0.40285098 99.33178711 0.4284668 C105.88452808 0.45389772 112.43705298 0.49465416 118.98965645 0.54521751 C121.44837137 0.56179821 123.90712578 0.57336688 126.3658886 0.57964516 C129.75712278 0.58924416 133.14773659 0.61721303 136.53881836 0.6496582 C137.53220215 0.64822311 138.52558594 0.64678802 139.54907227 0.64530945 C145.19820198 0.72192722 149.38246983 1.20672105 154.30859375 4.08203125 C156.17177474 6.9865284 156.56045339 9.25124343 156.56929016 12.66746521 C156.57637497 13.58288086 156.58345978 14.49829651 156.59075928 15.44145203 C156.58828186 16.4384462 156.58580444 17.43544037 156.58325195 18.46264648 C156.59091835 20.04618423 156.59091835 20.04618423 156.59873962 21.66171265 C156.61265058 25.15474095 156.61167773 28.64757228 156.609375 32.140625 C156.61326101 34.56673761 156.61759549 36.99284953 156.62236023 39.41896057 C156.62982562 44.50564784 156.62952876 49.5922657 156.62426758 54.67895508 C156.61847169 61.20045277 156.63540557 67.72166658 156.65861225 74.24311733 C156.67333694 79.25394861 156.67422301 84.26471131 156.67110252 89.27556038 C156.67161634 91.68014145 156.67686536 94.0847263 156.68691444 96.48928642 C156.6992371 99.85038634 156.69251186 103.2109306 156.6809082 106.57202148 C156.68855194 107.56699142 156.69619568 108.56196136 156.70407104 109.58708191 C156.66631379 114.52983975 156.6367698 118.12240504 153.30859375 122.08203125 C150.51681809 123.47791908 148.23301033 123.21009355 145.10783577 123.21345901 C144.13873369 123.21653797 144.13873369 123.21653797 143.1500538 123.21967912 C140.96428509 123.2253769 138.77857883 123.22388847 136.59280396 123.22247314 C135.01825413 123.22505519 133.44370497 123.22806789 131.86915672 123.23147655 C127.5259934 123.23956863 123.18284658 123.24133734 118.83967662 123.24207401 C114.16201376 123.24392072 109.48435955 123.25146608 104.80670166 123.25820923 C94.57134193 123.2718084 84.3359861 123.27781963 74.10061884 123.28221989 C67.71410062 123.28497944 61.32758393 123.28921624 54.94106674 123.29372406 C37.27129016 123.30591843 19.60151479 123.31621765 1.93173409 123.31959915 C0.80018308 123.31981872 -0.33136793 123.32003828 -1.49720836 123.3202645 C-2.63152046 123.32048278 -3.76583255 123.32070106 -4.93451774 123.32092595 C-7.23320063 123.32136942 -9.53188352 123.32181599 -11.83056641 123.32226562 C-12.970801 123.32248705 -14.1110356 123.32270848 -15.28582276 123.32293662 C-33.77081069 123.32688649 -52.25575923 123.3443455 -70.74073194 123.36762515 C-89.70242423 123.39131316 -108.66409674 123.40379983 -127.62580407 123.40496707 C-138.27881585 123.40588523 -148.93177633 123.41167294 -159.58477402 123.42978668 C-168.65429735 123.44515325 -177.72375352 123.45032855 -186.79328738 123.44204858 C-191.4236067 123.43812991 -196.05379063 123.43913067 -200.68409348 123.45310593 C-204.91930379 123.46577223 -209.15427597 123.46471189 -213.38948561 123.45251521 C-214.9251553 123.45054553 -216.46084145 123.45369478 -217.99648796 123.46235958 C-220.07760681 123.47336273 -222.15787189 123.46602901 -224.23896599 123.45396805 C-225.97569944 123.45486368 -225.97569944 123.45486368 -227.74751842 123.45577741 C-230.99629189 123.04332399 -232.38268352 122.36790414 -234.69140625 120.08203125 C-235.18359756 117.92806339 -235.18359756 117.92806339 -235.17242432 115.38233948 C-235.1806723 113.93338287 -235.1806723 113.93338287 -235.18908691 112.45515442 C-235.16751526 110.86775703 -235.16751526 110.86775703 -235.14550781 109.24829102 C-235.14609192 108.13261749 -235.14667603 107.01694397 -235.14727783 105.86746216 C-235.14448503 102.16914045 -235.11332827 98.47161896 -235.08203125 94.7734375 C-235.07457118 92.20898377 -235.06887714 89.64452434 -235.06488037 87.08006287 C-235.05115294 81.01093778 -235.0196149 74.94214342 -234.97948241 68.87314314 C-234.93488022 61.98041542 -234.91279264 55.08767464 -234.89270067 48.19483864 C-234.85256864 34.58369552 -234.78671446 20.97277977 -234.7025795 7.36184025 C-234.69232058 5.26859241 -234.69140625 3.17530423 -234.69140625 1.08203125 C-224.01720927 1.05890797 -213.34301819 1.04111624 -202.66880131 1.03021908 C-197.71286703 1.02499022 -192.75694983 1.01789251 -187.80102539 1.0065918 C-183.02241789 0.99576303 -178.24382687 0.98975444 -173.46520805 0.98715401 C-171.63787006 0.98529974 -169.81053301 0.98167909 -167.98320198 0.97630119 C-165.43287296 0.96909089 -162.88261288 0.9680403 -160.33227539 0.96850586 C-159.56911011 0.96491058 -158.80594482 0.96131531 -158.01965332 0.95761108 C-152.80545841 0.96797909 -152.80545841 0.96797909 -151.69140625 2.08203125 C-149.26558446 2.1747954 -146.87131074 2.19708065 -144.4453125 2.17578125 C-143.6575795 2.17219604 -142.8698465 2.16861084 -142.0582428 2.16491699 C-128.30303732 2.07709757 -114.54886318 1.77033287 -100.79614258 1.50927734 C-96.99954403 1.43782225 -93.20291751 1.36847104 -89.40625 1.30078125 C-87.53651016 1.26742676 -87.53651016 1.26742676 -85.6289978 1.23339844 C-78.87080429 1.12195864 -72.11699896 1.06310477 -65.35794067 1.10180664 C-63.63775223 1.10748657 -63.63775223 1.10748657 -61.8828125 1.11328125 C-60.55042856 1.11937424 -60.55042856 1.11937424 -59.19112778 1.12559032 C-52.10322389 1.13676276 -45.05164361 0.91976493 -37.97265625 0.58520508 C-25.30925799 0.03769303 -12.67323849 -0.04433271 0 0 Z M-232.69140625 2.08203125 C-233.02140625 2.74203125 -233.35140625 3.40203125 -233.69140625 4.08203125 C-233.03140625 4.08203125 -232.37140625 4.08203125 -231.69140625 4.08203125 C-232.02140625 3.42203125 -232.35140625 2.76203125 -232.69140625 2.08203125 Z M43.30859375 31.08203125 C43.30859375 39.00203125 43.30859375 46.92203125 43.30859375 55.08203125 C44.62859375 55.08203125 45.94859375 55.08203125 47.30859375 55.08203125 C47.80359375 50.62703125 47.80359375 50.62703125 48.30859375 46.08203125 C54.24859375 45.58703125 54.24859375 45.58703125 60.30859375 45.08203125 C60.30859375 48.38203125 60.30859375 51.68203125 60.30859375 55.08203125 C61.62859375 55.08203125 62.94859375 55.08203125 64.30859375 55.08203125 C64.30859375 47.16203125 64.30859375 39.24203125 64.30859375 31.08203125 C62.98859375 31.08203125 61.66859375 31.08203125 60.30859375 31.08203125 C60.30859375 34.71203125 60.30859375 38.34203125 60.30859375 42.08203125 C56.34859375 41.75203125 52.38859375 41.42203125 48.30859375 41.08203125 C47.97859375 37.78203125 47.64859375 34.48203125 47.30859375 31.08203125 C45.98859375 31.08203125 44.66859375 31.08203125 43.30859375 31.08203125 Z M71.30859375 31.08203125 C71.30859375 39.00203125 71.30859375 46.92203125 71.30859375 55.08203125 C77.24859375 55.08203125 83.18859375 55.08203125 89.30859375 55.08203125 C89.30859375 54.09203125 89.30859375 53.10203125 89.30859375 52.08203125 C85.01859375 51.75203125 80.72859375 51.42203125 76.30859375 51.08203125 C75.97859375 49.10203125 75.64859375 47.12203125 75.30859375 45.08203125 C79.59859375 45.08203125 83.88859375 45.08203125 88.30859375 45.08203125 C87.97859375 43.76203125 87.64859375 42.44203125 87.30859375 41.08203125 C83.34859375 41.08203125 79.38859375 41.08203125 75.30859375 41.08203125 C75.30859375 39.10203125 75.30859375 37.12203125 75.30859375 35.08203125 C79.92859375 35.08203125 84.54859375 35.08203125 89.30859375 35.08203125 C89.30859375 33.76203125 89.30859375 32.44203125 89.30859375 31.08203125 C83.36859375 31.08203125 77.42859375 31.08203125 71.30859375 31.08203125 Z M95.30859375 31.08203125 C95.2546204 33.51982755 95.21493759 35.9564281 95.18359375 38.39453125 C95.16683594 39.08482422 95.15007812 39.77511719 95.1328125 40.48632812 C95.09641581 44.25338521 95.16480511 45.86634829 97.30859375 49.08203125 C97.63859375 48.09203125 97.96859375 47.10203125 98.30859375 46.08203125 C104.93359375 46.83203125 104.93359375 46.83203125 108.30859375 49.08203125 C108.30859375 48.09203125 108.30859375 47.10203125 108.30859375 46.08203125 C108.92734375 45.97890625 109.54609375 45.87578125 110.18359375 45.76953125 C112.67385859 45.20677752 112.67385859 45.20677752 114.30859375 42.08203125 C114.52158825 40.12215494 114.52158825 40.12215494 114.24609375 38.08203125 C114.19324219 37.40140625 114.14039063 36.72078125 114.0859375 36.01953125 C112.88334789 33.02212197 111.21787678 32.36227433 108.30859375 31.08203125 C104.95567367 30.72134623 104.95567367 30.72134623 101.49609375 30.89453125 C100.33464844 30.92160156 99.17320312 30.94867188 97.9765625 30.9765625 C97.09613281 31.01136719 96.21570313 31.04617187 95.30859375 31.08203125 Z M120.30859375 31.08203125 C120.30859375 33.49515625 120.30859375 35.90828125 120.30859375 38.39453125 C120.30859375 43.95703125 120.30859375 49.51953125 120.30859375 55.08203125 C126.24859375 55.08203125 132.18859375 55.08203125 138.30859375 55.08203125 C138.30859375 54.09203125 138.30859375 53.10203125 138.30859375 52.08203125 C134.01859375 51.75203125 129.72859375 51.42203125 125.30859375 51.08203125 C124.97859375 49.43203125 124.64859375 47.78203125 124.30859375 46.08203125 C130.24859375 45.58703125 130.24859375 45.58703125 136.30859375 45.08203125 C136.30859375 43.76203125 136.30859375 42.44203125 136.30859375 41.08203125 C132.34859375 41.08203125 128.38859375 41.08203125 124.30859375 41.08203125 C124.30859375 39.10203125 124.30859375 37.12203125 124.30859375 35.08203125 C128.92859375 35.08203125 133.54859375 35.08203125 138.30859375 35.08203125 C138.30859375 33.76203125 138.30859375 32.44203125 138.30859375 31.08203125 C132.36859375 31.08203125 126.42859375 31.08203125 120.30859375 31.08203125 Z M4.55859375 32.51953125 C3.759375 32.62136719 2.96015625 32.72320312 2.13671875 32.828125 C1.5334375 32.91191406 0.93015625 32.99570313 0.30859375 33.08203125 C0.30859375 33.41203125 0.30859375 33.74203125 0.30859375 34.08203125 C0.93507813 34.13101563 1.5615625 34.18 2.20703125 34.23046875 C3.43292969 34.34261719 3.43292969 34.34261719 4.68359375 34.45703125 C5.90175781 34.56144531 5.90175781 34.56144531 7.14453125 34.66796875 C9.30859375 35.08203125 9.30859375 35.08203125 11.30859375 37.08203125 C11.96859375 35.76203125 12.62859375 34.44203125 13.30859375 33.08203125 C10.18678974 32.11541762 7.7877558 32.09214216 4.55859375 32.51953125 Z M21.30859375 33.08203125 C19.09909543 37.49232908 19.07152895 41.57143449 19.18359375 46.39453125 C19.19261719 47.13509766 19.20164062 47.87566406 19.2109375 48.63867188 C19.23435162 50.45326592 19.2702176 52.26769196 19.30859375 54.08203125 C20.95859375 54.41203125 22.60859375 54.74203125 24.30859375 55.08203125 C24.30859375 52.77203125 24.30859375 50.46203125 24.30859375 48.08203125 C25.19611328 48.15164062 25.19611328 48.15164062 26.1015625 48.22265625 C30.12754504 48.40655105 32.67557202 48.41173007 36.30859375 46.51953125 C38.94933044 43.30113341 39.38258481 41.22553066 39.30859375 37.08203125 C37.82844508 34.73052364 37.82844508 34.73052364 35.30859375 33.08203125 C31.80503025 32.59878919 31.80503025 32.59878919 28.05859375 32.83203125 C26.7953125 32.868125 25.53203125 32.90421875 24.23046875 32.94140625 C23.26625 32.9878125 22.30203125 33.03421875 21.30859375 33.08203125 Z M-1.69140625 34.08203125 C-2.88978834 36.41057588 -2.88978834 36.41057588 -3.69140625 39.08203125 C-2.70140625 40.56703125 -2.70140625 40.56703125 -1.69140625 42.08203125 C-1.03140625 41.75203125 -0.37140625 41.42203125 0.30859375 41.08203125 C0.03015625 39.90640625 0.03015625 39.90640625 -0.25390625 38.70703125 C-0.69140625 36.08203125 -0.69140625 36.08203125 0.30859375 34.08203125 C-0.35140625 34.08203125 -1.01140625 34.08203125 -1.69140625 34.08203125 Z M0.30859375 42.08203125 C2.26949612 44.40510114 2.26949612 44.40510114 5.80859375 44.83203125 C6.96359375 45.24453125 8.11859375 45.65703125 9.30859375 46.08203125 C10.74609375 49.20703125 10.74609375 49.20703125 11.30859375 52.08203125 C9.98859375 52.08203125 8.66859375 52.08203125 7.30859375 52.08203125 C7.30859375 52.74203125 7.30859375 53.40203125 7.30859375 54.08203125 C5.98859375 54.08203125 4.66859375 54.08203125 3.30859375 54.08203125 C3.30859375 53.42203125 3.30859375 52.76203125 3.30859375 52.08203125 C0.66859375 51.42203125 -1.97140625 50.76203125 -4.69140625 50.08203125 C-4.69140625 51.07203125 -4.69140625 52.06203125 -4.69140625 53.08203125 C-2.36331082 53.7667652 -0.02902848 54.43056276 2.30859375 55.08203125 C3.13359375 55.37078125 3.95859375 55.65953125 4.80859375 55.95703125 C8.75001493 56.15410231 11.03797856 54.19831167 14.30859375 52.08203125 C14.75228724 47.49212434 14.75228724 47.49212434 13.15234375 43.36328125 C10.57619412 41.57307558 8.72316295 41.78504645 5.62109375 41.89453125 C4.62722656 41.92160156 3.63335937 41.94867188 2.609375 41.9765625 C1.47048828 42.02876953 1.47048828 42.02876953 0.30859375 42.08203125 Z M108.30859375 49.08203125 C108.63859375 51.06203125 108.96859375 53.04203125 109.30859375 55.08203125 C111.28859375 55.08203125 113.26859375 55.08203125 115.30859375 55.08203125 C112.51438883 51.16599821 112.51438883 51.16599821 108.30859375 49.08203125 Z M95.30859375 51.08203125 C95.30859375 52.40203125 95.30859375 53.72203125 95.30859375 55.08203125 C96.62859375 55.08203125 97.94859375 55.08203125 99.30859375 55.08203125 C99.30859375 54.09203125 99.30859375 53.10203125 99.30859375 52.08203125 C97.98859375 51.75203125 96.66859375 51.42203125 95.30859375 51.08203125 Z " fill="#0E1010" transform="translate(348.69140625,146.91796875)"/>
<path d="M0 0 C1.19367188 -0.01675781 2.38734375 -0.03351563 3.6171875 -0.05078125 C8.13146026 0.41673252 11.43136658 1.73150728 14.76953125 4.84765625 C18.91572827 10.26960619 19.92623587 13.53447763 19.125 20.3125 C17.73659247 24.17529718 15.68188085 27.49706733 13.375 30.875 C11.17111477 35.17257619 11.67950652 39.79533287 13.125 44.3125 C6.80296829 46.5603335 -0.7273046 47.91485754 -7.16015625 45.4296875 C-8.875 44.3125 -8.875 44.3125 -9.625 42.1875 C-9.7075 41.56875 -9.79 40.95 -9.875 40.3125 C-11.009375 40.168125 -12.14375 40.02375 -13.3125 39.875 C-16.875 39.3125 -16.875 39.3125 -17.875 38.3125 C-18.11679404 36.02441198 -18.25836599 33.73784185 -18.3984375 31.44140625 C-18.70373755 28.92777629 -18.70373755 28.92777629 -21.875 27.3125 C-21.125 22.5625 -21.125 22.5625 -18.875 20.3125 C-18.75207209 18.77447169 -18.69944185 17.23038682 -18.6875 15.6875 C-18.27025602 10.35604917 -16.37019083 7.72606426 -12.76171875 3.90625 C-8.60241896 0.39280422 -5.43767856 0.0175409 0 0 Z " fill="#95DFD2" transform="translate(305.875,166.6875)"/>
<path d="M0 0 C2.32638519 0.00381156 4.65277072 0.00742729 6.97915649 0.01086426 C33.90154606 0.06389843 60.82299391 0.30787134 87.74414062 0.55731201 C93.83301745 0.61324289 99.92191422 0.66686644 106.01081157 0.72050762 C119.78588128 0.8419205 133.56091957 0.96660569 147.3359375 1.09375 C147.3359375 1.42375 147.3359375 1.75375 147.3359375 2.09375 C95.5259375 2.09375 43.7159375 2.09375 -9.6640625 2.09375 C-9.6640625 2.75375 -9.6640625 3.41375 -9.6640625 4.09375 C-56.1940625 4.09375 -102.7240625 4.09375 -150.6640625 4.09375 C-150.6640625 3.76375 -150.6640625 3.43375 -150.6640625 3.09375 C-136.63527366 2.059609 -122.60897042 1.8065918 -108.54736328 1.59106445 C-104.69946094 1.53179524 -100.85169571 1.46654526 -97.00390625 1.40039062 C-86.44409178 1.22592457 -75.88743696 1.05667958 -65.32592773 1.11819458 C-63.60611694 1.12349686 -63.60611694 1.12349686 -61.8515625 1.12890625 C-60.51965913 1.13453567 -60.51965913 1.13453567 -59.16084862 1.14027882 C-52.07365819 1.14895897 -45.0221654 0.93133121 -37.94384766 0.59741211 C-25.29033107 0.05104402 -12.66342713 -0.04023319 0 0 Z " fill="#567470" transform="translate(348.6640625,146.90625)"/>
<path d="M0 0 C0 0.66 0 1.32 0 2 C2.475 2.495 2.475 2.495 5 3 C5.33 3.99 5.66 4.98 6 6 C6.66 6 7.32 6 8 6 C8 6.99 8 7.98 8 9 C7.01 9.495 7.01 9.495 6 10 C6.99 10 7.98 10 9 10 C9.28999491 14.92991345 9.19703098 18.09251769 6 22 C5.01 22 4.02 22 3 22 C2.67 22.99 2.34 23.98 2 25 C-5.625 24.125 -5.625 24.125 -9 23 C-9 22.34 -9 21.68 -9 21 C-7.68 20.67 -6.36 20.34 -5 20 C-5.99 20 -6.98 20 -8 20 C-9.67099977 19.68911632 -11.33871537 19.35919668 -13 19 C-13.33 18.01 -13.66 17.02 -14 16 C-15.65 15.67 -17.3 15.34 -19 15 C-19 13 -19 13 -18 12 C-19.32 11.67 -20.64 11.34 -22 11 C-21.50168276 7.31245243 -20.89932357 5.39509338 -18 3 C-17.34 3.33 -16.68 3.66 -16 4 C-15.67 3.01 -15.34 2.02 -15 1 C-13.1875 0.375 -13.1875 0.375 -11 0 C-10.401875 -0.20625 -9.80375 -0.4125 -9.1875 -0.625 C-6.01017333 -1.16968457 -3.15186822 -0.54551565 0 0 Z " fill="#080C0C" transform="translate(313,170)"/>
<path d="M0 0 C3.5578125 -0.12375 3.5578125 -0.12375 7.1875 -0.25 C7.92508545 -0.28641602 8.6626709 -0.32283203 9.42260742 -0.36035156 C12.92565317 -0.41901161 14.92494078 -0.04386706 17.9609375 1.73046875 C20.25885269 4.28810999 20.61426193 5.1926193 20.4375 8.5625 C20.41558594 9.32691406 20.39367187 10.09132812 20.37109375 10.87890625 C20 13 20 13 18 16 C17.34 16 16.68 16 16 16 C16.680625 17.11375 16.680625 17.11375 17.375 18.25 C18.68640796 20.46930578 19.88280803 22.67967822 21 25 C18.3125 25.375 18.3125 25.375 15 25 C13.26526288 23.05874656 11.5954349 21.05727132 10 19 C7.83468832 18.05563651 7.83468832 18.05563651 6 18 C6 20.64 6 23.28 6 26 C4.02 26 2.04 26 0 26 C0 17.42 0 8.84 0 0 Z " fill="#99EBDE" transform="translate(183,177)"/>
<path d="M0 0 C2.475 0.99 2.475 0.99 5 2 C5 2.66 5 3.32 5 4 C130.73 4.33 256.46 4.66 386 5 C386 5.33 386 5.66 386 6 C337.40355602 6.0686173 288.80711693 6.12150395 240.21063407 6.15319599 C234.47766222 6.15694826 228.74469046 6.16083121 223.01171875 6.16479492 C221.87035315 6.16558185 220.72898755 6.16636878 219.55303511 6.16717956 C201.05499037 6.1802452 182.55697351 6.2039054 164.05894533 6.23145839 C145.08827958 6.25948039 126.11762845 6.27616946 107.14694285 6.28226548 C95.43433005 6.28638859 83.72179602 6.29942639 72.00920746 6.3237494 C63.98517791 6.33956705 55.96118928 6.34440939 47.93714526 6.34050413 C43.30278583 6.33857638 38.66856438 6.3415995 34.03422928 6.35761642 C29.79524424 6.37216051 25.55649064 6.37298833 21.3174952 6.36269668 C19.78041744 6.36142375 18.24332555 6.36527579 16.70627585 6.37464955 C14.62323984 6.38661884 12.54104882 6.38024376 10.45802689 6.36914349 C9.29912044 6.37028265 8.14021399 6.37142181 6.94618917 6.37259549 C3.69020653 5.96082137 2.26217621 5.35861535 0 3 C0 2.01 0 1.02 0 0 Z " fill="#324D4B" transform="translate(114,264)"/>
<path d="M0 0 C6.6 0 13.2 0 20 0 C20 1.65 20 3.3 20 5 C15.38 5 10.76 5 6 5 C6 6.98 6 8.96 6 11 C9.96 11 13.92 11 18 11 C18 12.32 18 13.64 18 15 C14.04 15 10.08 15 6 15 C6 16.98 6 18.96 6 21 C10.29 21 14.58 21 19 21 C19 22.32 19 23.64 19 25 C12.73 25 6.46 25 0 25 C0 16.75 0 8.5 0 0 Z " fill="#A3EEE4" transform="translate(246,177)"/>
<path d="M0 0 C0.33 0 0.66 0 1 0 C1.06058594 1.05960938 1.12117188 2.11921875 1.18359375 3.2109375 C1.26800127 4.59897221 1.35264917 5.98699232 1.4375 7.375 C1.47681641 8.07367188 1.51613281 8.77234375 1.55664062 9.4921875 C1.74280134 13.37360492 1.74280134 13.37360492 3 17 C3.33 16.34 3.66 15.68 4 15 C7.1875 14.625 7.1875 14.625 11 15 C13.1403498 16.81188028 14.38988302 18.65801167 16 21 C15.34 21.66 14.68 22.32 14 23 C13.4225 22.195625 12.845 21.39125 12.25 20.5625 C10.01873107 18.02133261 9.25543229 17.34879632 6 17 C6 19.64 6 22.28 6 25 C0.25 25.125 0.25 25.125 -2 24 C-2.66 24.66 -3.32 25.32 -4 26 C-5.97119141 26.13525391 -5.97119141 26.13525391 -8.3515625 25.9765625 C-9.20234375 25.925 -10.053125 25.8734375 -10.9296875 25.8203125 C-11.81914062 25.75585938 -12.70859375 25.69140625 -13.625 25.625 C-14.5221875 25.56828125 -15.419375 25.5115625 -16.34375 25.453125 C-18.56328624 25.31145247 -20.78172402 25.1600296 -23 25 C-23 24.67 -23 24.34 -23 24 C-17.06 24 -11.12 24 -5 24 C-5 23.01 -5 22.02 -5 21 C-6.39025391 21.01740234 -6.39025391 21.01740234 -7.80859375 21.03515625 C-9.00613281 21.04417969 -10.20367187 21.05320313 -11.4375 21.0625 C-12.63246094 21.07410156 -13.82742188 21.08570313 -15.05859375 21.09765625 C-18 21 -18 21 -19 20 C-19 18.02 -19 16.04 -19 14 C-13.06 13.505 -13.06 13.505 -7 13 C-7 12.01 -7 11.02 -7 10 C-10.96 10 -14.92 10 -19 10 C-19 8.02 -19 6.04 -19 4 C-14.38 4 -9.76 4 -5 4 C-5 4.33 -5 4.66 -5 5 C-9.29 5 -13.58 5 -18 5 C-18 6.32 -18 7.64 -18 9 C-17.01 8.67 -16.02 8.34 -15 8 C-15.33 7.34 -15.66 6.68 -16 6 C-14.35 6 -12.7 6 -11 6 C-10.67 6.66 -10.34 7.32 -10 8 C-7.97536745 8.65213292 -7.97536745 8.65213292 -6 9 C-6 9.99 -6 10.98 -6 12 C-4.35 11.67 -2.7 11.34 -1 11 C-0.67 7.37 -0.34 3.74 0 0 Z M1 20 C1 21.32 1 22.64 1 24 C2.32 24 3.64 24 5 24 C5 23.01 5 22.02 5 21 C3.68 20.67 2.36 20.34 1 20 Z " fill="#233935" transform="translate(443,178)"/>
<path d="M0 0 C1.65 0 3.3 0 5 0 C5 3.63 5 7.26 5 11 C8.96 11 12.92 11 17 11 C17 7.37 17 3.74 17 0 C18.65 0 20.3 0 22 0 C22 8.25 22 16.5 22 25 C20.35 25 18.7 25 17 25 C17 22.03 17 19.06 17 16 C13.04 16 9.08 16 5 16 C5 18.97 5 21.94 5 25 C3.35 25 1.7 25 0 25 C0 16.75 0 8.5 0 0 Z " fill="#9CE5DB" transform="translate(155,177)"/>
<path d="M0 0 C2.97 0 5.94 0 9 0 C9 0.66 9 1.32 9 2 C6.69 2 4.38 2 2 2 C2 2.99 2 3.98 2 5 C4.31 5 6.62 5 9 5 C9.33 4.01 9.66 3.02 10 2 C14.25743911 0.23223724 17.75047422 1.7959677 22 3 C22.33 2.01 22.66 1.02 23 0 C25.72647685 2.35468455 26.98756342 4.5408417 28 8 C27.625 10.3125 27.625 10.3125 27 12 C26.67 11.34 26.34 10.68 26 10 C23.58354218 9.83312552 23.58354218 9.83312552 21 10 C20.34 10.66 19.68 11.32 19 12 C16.72424462 13.51895937 14.44208966 14.73534642 12 16 C10 15 10 15 9 12 C6.03 12 3.06 12 0 12 C0 8.04 0 4.08 0 0 Z " fill="#0D1012" transform="translate(409,240)"/>
<path d="M0 0 C0 0.66 0 1.32 0 2 C2.475 2.495 2.475 2.495 5 3 C5.33 3.99 5.66 4.98 6 6 C6.66 6 7.32 6 8 6 C8 6.99 8 7.98 8 9 C7.030625 9.391875 6.06125 9.78375 5.0625 10.1875 C1.77823609 11.67594887 1.77823609 11.67594887 1.125 14.6875 C1.08375 15.450625 1.0425 16.21375 1 17 C0.01 17.33 -0.98 17.66 -2 18 C-2.33 17.01 -2.66 16.02 -3 15 C-5.64 14.67 -8.28 14.34 -11 14 C-11.268125 12.906875 -11.53625 11.81375 -11.8125 10.6875 C-12.87663739 7.38307337 -13.34654664 6.05039578 -16 4 C-15.67 3.01 -15.34 2.02 -15 1 C-13.1875 0.375 -13.1875 0.375 -11 0 C-10.401875 -0.20625 -9.80375 -0.4125 -9.1875 -0.625 C-6.01017333 -1.16968457 -3.15186822 -0.54551565 0 0 Z " fill="#050E0E" transform="translate(313,170)"/>
<path d="M0 0 C1.98 0 3.96 0 6 0 C7.00508801 1.78881736 8.00392736 3.58114696 9 5.375 C9.8353125 6.87160156 9.8353125 6.87160156 10.6875 8.3984375 C12 11 12 11 12 13 C12.66 13 13.32 13 14 13 C14.19335938 12.39671875 14.38671875 11.7934375 14.5859375 11.171875 C14.84632813 10.37265625 15.10671875 9.5734375 15.375 8.75 C15.63023437 7.96109375 15.88546875 7.1721875 16.1484375 6.359375 C16.95173667 4.13372042 17.89711662 2.09068328 19 0 C21.31 0 23.62 0 26 0 C24.56358915 3.04218216 23.12567446 6.08365123 21.6875 9.125 C21.28337891 9.9809375 20.87925781 10.836875 20.46289062 11.71875 C18.35646978 16.17134691 16.22589182 20.60584463 14 25 C13.34 25 12.68 25 12 25 C11.67201416 24.31373535 11.34402832 23.6274707 11.00610352 22.92041016 C9.52508626 19.82185216 8.04379654 16.72342449 6.5625 13.625 C5.7880957 12.00464844 5.7880957 12.00464844 4.99804688 10.3515625 C4.50498047 9.3203125 4.01191406 8.2890625 3.50390625 7.2265625 C2.82050171 5.79691162 2.82050171 5.79691162 2.12329102 4.33837891 C1.42614075 2.88710629 0.72002926 1.44005853 0 0 Z " fill="#93DDD2" transform="translate(218,177)"/>
<path d="M0 0 C3.5578125 -0.12375 3.5578125 -0.12375 7.1875 -0.25 C7.92508545 -0.28641602 8.6626709 -0.32283203 9.42260742 -0.36035156 C12.94097265 -0.41926814 14.92532827 -0.04401702 17.96875 1.75 C20 4 20 4 20.48828125 6.140625 C20.32552083 8.09375 20.16276042 10.046875 20 12 C14.91761871 13.06997501 10.18438406 13 5 13 C4.67 10.36 4.34 7.72 4 5 C3.34 5.66 2.68 6.32 2 7 C2.33 5.68 2.66 4.36 3 3 C6.28696233 2.20046862 7.71023192 1.90341064 11 3 C11 2.34 11 1.68 11 1 C7.7 1 4.4 1 1 1 C1 8.92 1 16.84 1 25 C2.32 25 3.64 25 5 25 C5 22.69 5 20.38 5 18 C5.33 18 5.66 18 6 18 C6 20.64 6 23.28 6 26 C4.02 26 2.04 26 0 26 C0 17.42 0 8.84 0 0 Z " fill="#83C3B7" transform="translate(183,177)"/>
<path d="M0 0 C6.93 0 13.86 0 21 0 C21 1.65 21 3.3 21 5 C18.36 5 15.72 5 13 5 C13 11.6 13 18.2 13 25 C11.35 25 9.7 25 8 25 C8 18.4 8 11.8 8 5 C5.36 5 2.72 5 0 5 C0 3.35 0 1.7 0 0 Z " fill="#88CBBF" transform="translate(131,177)"/>
<path d="M0 0 C1.65 0 3.3 0 5 0 C5 0.66 5 1.32 5 2 C3.35 2 1.7 2 0 2 C0 10.58 0 19.16 0 28 C1.98 28 3.96 28 6 28 C2.86501708 29.85776765 0.62528568 30.20140476 -3 30 C-3.33 30.66 -3.66 31.32 -4 32 C-4.66 32 -5.32 32 -6 32 C-6.33 31.34 -6.66 30.68 -7 30 C-9.01669827 28.86649466 -9.01669827 28.86649466 -11 28 C-8.69 28 -6.38 28 -4 28 C-4.433125 27.52949219 -4.86625 27.05898437 -5.3125 26.57421875 C-5.869375 25.95160156 -6.42625 25.32898438 -7 24.6875 C-7.556875 24.07261719 -8.11375 23.45773438 -8.6875 22.82421875 C-10 21 -10 21 -10 18 C-9.51015625 17.53722656 -9.0203125 17.07445312 -8.515625 16.59765625 C-6.80018081 15.09505814 -6.80018081 15.09505814 -6.671875 12.80859375 C-6.71054688 11.63490234 -6.71054688 11.63490234 -6.75 10.4375 C-6.76546875 9.65246094 -6.7809375 8.86742187 -6.796875 8.05859375 C-6.88241141 5.93749039 -6.88241141 5.93749039 -8 4 C-6 4 -4 4 -2 4 C-1.34 2.68 -0.68 1.36 0 0 Z " fill="#040D0D" transform="translate(209,175)"/>
<path d="M0 0 C1.07765625 0.03609375 2.1553125 0.0721875 3.265625 0.109375 C4.49539063 0.17898437 4.49539063 0.17898437 5.75 0.25 C5.42 0.91 5.09 1.57 4.75 2.25 C2.49053416 2.60557331 0.2600223 2.69330506 -2.0234375 2.80859375 C-4.68869642 3.33696964 -5.62502191 4.10439786 -7.25 6.25 C-7.32642709 8.36149645 -7.32642709 8.36149645 -6.25 10.25 C-2.82895038 12.71315573 1.7124486 13.30790467 5.75 14.25 C6.08 16.56 6.41 18.87 6.75 21.25 C5.43 21.25 4.11 21.25 2.75 21.25 C2.75 21.91 2.75 22.57 2.75 23.25 C1.43 23.25 0.11 23.25 -1.25 23.25 C-1.25 22.59 -1.25 21.93 -1.25 21.25 C-3.56 20.92 -5.87 20.59 -8.25 20.25 C-7.92 19.26 -7.59 18.27 -7.25 17.25 C-7.91 16.92 -8.57 16.59 -9.25 16.25 C-9.8046875 13.66796875 -9.8046875 13.66796875 -10.125 10.4375 C-10.24617188 9.37917969 -10.36734375 8.32085937 -10.4921875 7.23046875 C-10.25 4.25 -10.25 4.25 -8.6484375 1.87890625 C-5.56235262 -0.21701785 -3.69571275 -0.16068316 0 0 Z " fill="#0F1719" transform="translate(353.25,177.75)"/>
<path d="M0 0 C6.6 0 13.2 0 20 0 C20 1.65 20 3.3 20 5 C15.38 5 10.76 5 6 5 C6 6.98 6 8.96 6 11 C8.97 11.33 11.94 11.66 15 12 C15 12.33 15 12.66 15 13 C13.58566794 13.2236337 12.16832382 13.42826476 10.75 13.625 C9.96109375 13.74101562 9.1721875 13.85703125 8.359375 13.9765625 C5.67847541 14.00319395 4.27305911 13.36592084 2 12 C1.85714286 4.57142857 1.85714286 4.57142857 3 1 C2.34 1 1.68 1 1 1 C1 8.92 1 16.84 1 25 C0.67 25 0.34 25 0 25 C0 16.75 0 8.5 0 0 Z " fill="#7EC5BB" transform="translate(246,177)"/>
<path d="M0 0 C0.66 0 1.32 0 2 0 C3.125 7.625 3.125 7.625 2 11 C1.34 11 0.68 11 0 11 C-0.33 11.66 -0.66 12.32 -1 13 C-1 12.34 -1 11.68 -1 11 C-1.65226562 11.09539062 -2.30453125 11.19078125 -2.9765625 11.2890625 C-8.21513193 11.95354181 -12.04226816 12.21793267 -17 10 C-17.625 7.625 -17.625 7.625 -18 5 C-16 3 -16 3 -13.8359375 2.8046875 C-12.61777344 2.83949219 -12.61777344 2.83949219 -11.375 2.875 C-10.14910156 2.90207031 -10.14910156 2.90207031 -8.8984375 2.9296875 C-7.95871094 2.96449219 -7.95871094 2.96449219 -7 3 C-6.67 4.32 -6.34 5.64 -6 7 C-2.9104054 6.33770271 -2.9104054 6.33770271 -1.875 4.0625 C-1.441875 3.0415625 -1.441875 3.0415625 -1 2 C-0.67 1.34 -0.34 0.68 0 0 Z " fill="#050607" transform="translate(365,178)"/>
<path d="M0 0 C5.75 1.625 5.75 1.625 8 5 C8.125 8.1875 8.125 8.1875 8 11 C8.8971875 10.6596875 8.8971875 10.6596875 9.8125 10.3125 C10.8953125 10.1578125 10.8953125 10.1578125 12 10 C13.75 11.4375 13.75 11.4375 15 13 C13.3125 15.0625 13.3125 15.0625 11 17 C8.25 16.75 8.25 16.75 6 16 C5.67 15.01 5.34 14.02 5 13 C3.35 12.67 1.7 12.34 0 12 C0 10 0 10 1 9 C-0.32 8.67 -1.64 8.34 -3 8 C-2.45276317 4.62537285 -1.9451 2.91765 0 0 Z " fill="#0C1214" transform="translate(294,173)"/>
<path d="M0 0 C2.97 0 5.94 0 9 0 C9 0.66 9 1.32 9 2 C6.69 2 4.38 2 2 2 C2 2.99 2 3.98 2 5 C5.35433109 4.05066101 8.69246505 3.10251165 12 2 C13.0625 4.375 13.0625 4.375 14 7 C13.67 7.66 13.34 8.32 13 9 C12.34 9 11.68 9 11 9 C11.33 10.98 11.66 12.96 12 15 C6.06 14.01 6.06 14.01 0 13 C0 8.71 0 4.42 0 0 Z " fill="#182220" transform="translate(337,240)"/>
<path d="M0 0 C1.65 0 3.3 0 5 0 C5 8.25 5 16.5 5 25 C3.35 25 1.7 25 0 25 C0 22.03 0 19.06 0 16 C-3.96 16 -7.92 16 -12 16 C-12 15.67 -12 15.34 -12 15 C-8.04 15 -4.08 15 0 15 C0.33 14.01 0.66 13.02 1 12 C0.67 11.67 0.34 11.34 0 11 C-0.07226502 9.14712498 -0.0838122 7.29166122 -0.0625 5.4375 C-0.05347656 4.42558594 -0.04445312 3.41367188 -0.03515625 2.37109375 C-0.02355469 1.58863281 -0.01195312 0.80617187 0 0 Z " fill="#7EBDB4" transform="translate(172,177)"/>
<path d="M0 0 C0.33 0 0.66 0 1 0 C1.06058594 1.02480469 1.12117188 2.04960937 1.18359375 3.10546875 C1.26805026 4.46615695 1.35269567 5.82683343 1.4375 7.1875 C1.47681641 7.86103516 1.51613281 8.53457031 1.55664062 9.22851562 C1.74223176 12.15514512 1.99495897 14.97513545 2.578125 17.8515625 C3 20 3 20 2.3125 22.1875 C0.77404758 24.31202953 -0.58896173 25.03558469 -3 26 C-3 25.01 -3 24.02 -3 23 C-3.5775 22.731875 -4.155 22.46375 -4.75 22.1875 C-7.07363365 20.9611378 -9.03824646 19.75156566 -11 18 C-11 17.01 -11 16.02 -11 15 C-10.38125 14.814375 -9.7625 14.62875 -9.125 14.4375 C-5.94397134 12.28562767 -5.80548053 9.62466237 -5 6 C-4.67 6 -4.34 6 -4 6 C-4 7.98 -4 9.96 -4 12 C-3.01 11.67 -2.02 11.34 -1 11 C-0.67 7.37 -0.34 3.74 0 0 Z " fill="#253C39" transform="translate(468,178)"/>
<path d="M0 0 C1.65 0 3.3 0 5 0 C5 8.25 5 16.5 5 25 C3.35 25 1.7 25 0 25 C0 16.75 0 8.5 0 0 Z " fill="#A3E4D8" transform="translate(209,177)"/>
<path d="M0 0 C0.33 0 0.66 0 1 0 C1 7.92 1 15.84 1 24 C2.32 24 3.64 24 5 24 C5 21.03 5 18.06 5 15 C5.33 15 5.66 15 6 15 C6 18.3 6 21.6 6 25 C3.69 25 1.38 25 -1 25 C-1.28875 23.865625 -1.5775 22.73125 -1.875 21.5625 C-2.24625 20.386875 -2.6175 19.21125 -3 18 C-3.66 17.67 -4.32 17.34 -5 17 C-5.33 17.66 -5.66 18.32 -6 19 C-9.63 18.67 -13.26 18.34 -17 18 C-17 19.98 -17 21.96 -17 24 C-17.33 24 -17.66 24 -18 24 C-18 21.69 -18 19.38 -18 17 C-17.40832031 16.98582031 -16.81664062 16.97164062 -16.20703125 16.95703125 C-11.87393323 16.69549026 -9.55447288 16.41585466 -6 13.75 C-3.98053571 10.9732366 -3.46286036 9.33259462 -3 6 C-2.34 5.67 -1.68 5.34 -1 5 C-0.34444881 2.47266765 -0.34444881 2.47266765 0 0 Z " fill="#2E4946" transform="translate(391,178)"/>
<path d="M0 0 C0.33 2.64 0.66 5.28 1 8 C1.66 8 2.32 8 3 8 C3 8.66 3 9.32 3 10 C0.20046988 11.90368048 -1.15773599 11.99184124 -4.625 11.8125 C-8 11 -8 11 -10 8 C-10.32443143 4.88545823 -10.45929053 2.83752979 -8.9375 0.0625 C-5.87530347 -1.61676907 -3.30629059 -0.68621125 0 0 Z " fill="#0E1E1E" transform="translate(457,241)"/>
<path d="M0 0 C3.5625 0.25 3.5625 0.25 7 1 C8.52491998 4.04983996 8.23562548 6.6423369 8 10 C6.875 12 6.875 12 5 13 C1.9375 12.875 1.9375 12.875 -1 12 C-3 9 -3 9 -2.75 5.4375 C-2 2 -2 2 0 0 Z " fill="#0B1A1C" transform="translate(252,240)"/>
<path d="M0 0 C3.63 0 7.26 0 11 0 C11 2.97 11 5.94 11 9 C10.67 9 10.34 9 10 9 C10 6.69 10 4.38 10 2 C7.69 2.33 5.38 2.66 3 3 C2.855625 3.9075 2.71125 4.815 2.5625 5.75 C2.13590527 8.21476956 1.64925779 10.58847107 1 13 C0.34 13 -0.32 13 -1 13 C-1.33 13.66 -1.66 14.32 -2 15 C-3.32 14.34 -4.64 13.68 -6 13 C-5.67 12.34 -5.34 11.68 -5 11 C-5.66 11 -6.32 11 -7 11 C-7.33 11.66 -7.66 12.32 -8 13 C-9.32 13 -10.64 13 -12 13 C-13.23076923 6.6 -13.23076923 6.6 -12.0625 3.5625 C-11.711875 3.046875 -11.36125 2.53125 -11 2 C-10.01 2.33 -9.02 2.66 -8 3 C-7.67 5.31 -7.34 7.62 -7 10 C-4.69 10 -2.38 10 0 10 C0 6.7 0 3.4 0 0 Z " fill="#070C0B" transform="translate(397,193)"/>
<path d="M0 0 C1.65 0 3.3 0 5 0 C5 7.59 5 15.18 5 23 C4.01 22.01 3.02 21.02 2 20 C1.67 21.65 1.34 23.3 1 25 C0.67 25 0.34 25 0 25 C0 16.75 0 8.5 0 0 Z " fill="#060E0D" transform="translate(414,178)"/>
<path d="M0 0 C1.60875 -0.04125 3.2175 -0.0825 4.875 -0.125 C5.77992188 -0.14820313 6.68484375 -0.17140625 7.6171875 -0.1953125 C10 0 10 0 12 2 C12.26991906 4.68839385 12.08737357 7.29141936 12 10 C8.33333333 10 4.66666667 10 1 10 C0.67 6.7 0.34 3.4 0 0 Z " fill="#497068" transform="translate(372,181)"/>
<path d="M0 0 C0.33 0.66 0.66 1.32 1 2 C2.65 1.67 4.3 1.34 6 1 C5.34 2.32 4.68 3.64 4 5 C3.34 5 2.68 5 2 5 C2.45375 5.7425 2.9075 6.485 3.375 7.25 C4.68640796 9.46930578 5.88280803 11.67967822 7 14 C4.3125 14.375 4.3125 14.375 1 14 C-0.71140469 12.03814584 -2.37873325 10.03697617 -4 8 C-6.67108098 7.04452419 -6.67108098 7.04452419 -9 7 C-8.67 5.68 -8.34 4.36 -8 3 C-6.865625 2.87625 -5.73125 2.7525 -4.5625 2.625 C-3.386875 2.41875 -2.21125 2.2125 -1 2 C-0.67 1.34 -0.34 0.68 0 0 Z " fill="#92DDD0" transform="translate(197,188)"/>
<path d="M0 0 C0.66 0.33 1.32 0.66 2 1 C2 9.58 2 18.16 2 27 C1.67 27 1.34 27 1 27 C1 23.7 1 20.4 1 17 C0.34 17.33 -0.32 17.66 -1 18 C-1.40729228 20.32156597 -1.74438677 22.6568787 -2 25 C-2.33 25 -2.66 25 -3 25 C-3 17.08 -3 9.16 -3 1 C-2.01 1.33 -1.02 1.66 0 2 C0 1.34 0 0.68 0 0 Z " fill="#030D0C" transform="translate(181,177)"/>
<path d="M0 0 C6.15234375 -0.09765625 6.15234375 -0.09765625 8 0 C9 1 9 1 9.125 3.5 C9 6 9 6 8 7 C6.33382885 7.04063832 4.66611905 7.042721 3 7 C3 8.98 3 10.96 3 13 C1.02 13.66 -0.96 14.32 -3 15 C-3 14.01 -3 13.02 -3 12 C-2.34 12 -1.68 12 -1 12 C-0.67 8.04 -0.34 4.08 0 0 Z " fill="#6A8783" transform="translate(389,240)"/>
<path d="M0 0 C6.0546875 -0.1953125 6.0546875 -0.1953125 8 0 C10 2 10 2 10.1953125 4.3828125 C10.17210937 5.28773438 10.14890625 6.19265625 10.125 7.125 C10.10695313 8.03507813 10.08890625 8.94515625 10.0703125 9.8828125 C10.04710937 10.58148438 10.02390625 11.28015625 10 12 C9.34 12 8.68 12 8 12 C8 10.35 8 8.7 8 7 C6.02 7 4.04 7 2 7 C2 8.65 2 10.3 2 12 C1.34 12 0.68 12 0 12 C0 8.04 0 4.08 0 0 Z " fill="#658B89" transform="translate(356,240)"/>
<path d="M0 0 C0.33 0 0.66 0 1 0 C1.06058594 1.05960938 1.12117188 2.11921875 1.18359375 3.2109375 C1.26800127 4.59897221 1.35264917 5.98699232 1.4375 7.375 C1.47681641 8.07367188 1.51613281 8.77234375 1.55664062 9.4921875 C1.74280134 13.37360492 1.74280134 13.37360492 3 17 C3.33 16.34 3.66 15.68 4 15 C7.1875 14.625 7.1875 14.625 11 15 C13.1403498 16.81188028 14.38988302 18.65801167 16 21 C15.34 21.66 14.68 22.32 14 23 C13.4225 22.195625 12.845 21.39125 12.25 20.5625 C10.01873107 18.02133261 9.25543229 17.34879632 6 17 C6 19.64 6 22.28 6 25 C4.02 25 2.04 25 0 25 C0 16.75 0 8.5 0 0 Z M1 20 C1 21.32 1 22.64 1 24 C2.32 24 3.64 24 5 24 C5 23.01 5 22.02 5 21 C3.68 20.67 2.36 20.34 1 20 Z " fill="#82BBB1" transform="translate(443,178)"/>
<path d="M0 0 C1.65 0 3.3 0 5 0 C5 0.66 5 1.32 5 2 C3.35 2 1.7 2 0 2 C0.03480469 2.90363281 0.06960937 3.80726563 0.10546875 4.73828125 C0.13253906 5.91777344 0.15960938 7.09726563 0.1875 8.3125 C0.22230469 9.48425781 0.25710937 10.65601563 0.29296875 11.86328125 C0 15 0 15 -1.32421875 16.91796875 C-3 18 -3 18 -6 18 C-5.773125 17.360625 -5.54625 16.72125 -5.3125 16.0625 C-4.85967317 11.62479709 -6.41707682 8.10486859 -8 4 C-6 4 -4 4 -2 4 C-1.34 2.68 -0.68 1.36 0 0 Z " fill="#040B0A" transform="translate(209,175)"/>
<path d="M0 0 C0.33 0 0.66 0 1 0 C1.75109858 6.75988723 0.09115566 9.97417009 -3.59765625 15.58984375 C-5.48177334 18.828006 -5.83894102 21.29564353 -6 25 C-6.33 25 -6.66 25 -7 25 C-7 22.36 -7 19.72 -7 17 C-7.99 17.33 -8.98 17.66 -10 18 C-10.66 17.67 -11.32 17.34 -12 17 C-12 15.68 -12 14.36 -12 13 C-11.360625 12.87625 -10.72125 12.7525 -10.0625 12.625 C-9.381875 12.41875 -8.70125 12.2125 -8 12 C-7.67 11.34 -7.34 10.68 -7 10 C-6.01 9.67 -5.02 9.34 -4 9 C-1.96039529 6.0974856 -0.64658926 3.49158202 0 0 Z " fill="#9DE2D6" transform="translate(323,182)"/>
<path d="M0 0 C2 2 2 2 2.22705078 4.06298828 C2.21657715 4.89040527 2.20610352 5.71782227 2.1953125 6.5703125 C2.18886719 7.46621094 2.18242187 8.36210937 2.17578125 9.28515625 C2.15902344 10.22230469 2.14226562 11.15945312 2.125 12.125 C2.11597656 13.06988281 2.10695312 14.01476562 2.09765625 14.98828125 C2.07404522 17.32577292 2.04111516 19.66276123 2 22 C0.68 22 -0.64 22 -2 22 C-2 15.4 -2 8.8 -2 2 C-1.34 2 -0.68 2 0 2 C0 1.34 0 0.68 0 0 Z " fill="#9BEADE" transform="translate(142,180)"/>
<path d="M0 0 C4.53270458 1.45316007 7.02386068 4.77262392 9.6875 8.5625 C10.89022819 10.96795638 10.78821472 12.51246953 10.75 15.1875 C10.74097656 16.00476563 10.73195313 16.82203125 10.72265625 17.6640625 C10.71105469 18.29054687 10.69945312 18.91703125 10.6875 19.5625 C9.6975 19.2325 8.7075 18.9025 7.6875 18.5625 C7.6875 16.5825 7.6875 14.6025 7.6875 12.5625 C6.0375 13.2225 4.3875 13.8825 2.6875 14.5625 C3.0175 13.5725 3.3475 12.5825 3.6875 11.5625 C4.6775 11.5625 5.6675 11.5625 6.6875 11.5625 C6.6875 10.5725 6.6875 9.5825 6.6875 8.5625 C6.0275 8.5625 5.3675 8.5625 4.6875 8.5625 C3.6875 7.5625 2.6875 6.5625 1.6875 5.5625 C0.6975 5.2325 -0.2925 4.9025 -1.3125 4.5625 C-1.3125 3.9025 -1.3125 3.2425 -1.3125 2.5625 C-2.9625 2.2325 -4.6125 1.9025 -6.3125 1.5625 C-3.3125 -0.4375 -3.3125 -0.4375 0 0 Z " fill="#96D2C9" transform="translate(314.3125,167.4375)"/>
<path d="M0 0 C2.97 0 5.94 0 9 0 C10.125 2.3125 10.125 2.3125 11 5 C10.01 6.485 10.01 6.485 9 8 C6.8359375 8.29296875 6.8359375 8.29296875 4.375 8.1875 C3.55773437 8.16042969 2.74046875 8.13335937 1.8984375 8.10546875 C1.27195312 8.07066406 0.64546875 8.03585938 0 8 C0 5.36 0 2.72 0 0 Z " fill="#253D3B" transform="translate(448,182)"/>
<path d="M0 0 C0 0.33 0 0.66 0 1 C-1.98 1 -3.96 1 -6 1 C-6.2165625 2.11375 -6.2165625 2.11375 -6.4375 3.25 C-6.90222861 5.52200655 -7.42077143 7.75548928 -8 10 C-8.185625 10.7425 -8.37125 11.485 -8.5625 12.25 C-8.706875 12.8275 -8.85125 13.405 -9 14 C-9.66 14 -10.32 14 -11 14 C-11.268125 12.906875 -11.53625 11.81375 -11.8125 10.6875 C-12.87663739 7.38307337 -13.34654664 6.05039578 -16 4 C-15.67 3.01 -15.34 2.02 -15 1 C-13.1875 0.375 -13.1875 0.375 -11 0 C-10.401875 -0.20625 -9.80375 -0.4125 -9.1875 -0.625 C-6.01017333 -1.16968457 -3.15186822 -0.54551565 0 0 Z " fill="#3A5752" transform="translate(313,170)"/>
<path d="M0 0 C0.33 0 0.66 0 1 0 C1.33 8.58 1.66 17.16 2 26 C-1 26 -1 26 -4 24 C-2.68 24 -1.36 24 0 24 C0 16.08 0 8.16 0 0 Z M6 0 C6.33 0 6.66 0 7 0 C7 7.92 7 15.84 7 24 C5.35 24.33 3.7 24.66 2 25 C2 23.35 2 21.7 2 20 C2.66 19.67 3.32 19.34 4 19 C4.33 19.99 4.66 20.98 5 22 C5.33 14.74 5.66 7.48 6 0 Z " fill="#4D726F" transform="translate(413,178)"/>
<path d="M0 0 C2.475 0.495 2.475 0.495 5 1 C7.38038888 4.85396294 7.17371424 8.5702869 7 13 C5.68 12.34 4.36 11.68 3 11 C2.34 12.65 1.68 14.3 1 16 C0.67 16 0.34 16 0 16 C0 10.72 0 5.44 0 0 Z " fill="#04120F" transform="translate(215,178)"/>
<path d="M0 0 C3 0 6 0 9 0 C9 3.96 9 7.92 9 12 C5.00003714 10.66667905 4.16217663 8.5042173 2 5 C1.67 7.31 1.34 9.62 1 12 C0.67 12 0.34 12 0 12 C0 8.04 0 4.08 0 0 Z " fill="#59827B" transform="translate(297,240)"/>
<path d="M0 0 C1.93742341 -0.02703381 3.87495479 -0.04641125 5.8125 -0.0625 C6.89144531 -0.07410156 7.97039062 -0.08570313 9.08203125 -0.09765625 C12 0 12 0 15 1 C15 2.32 15 3.64 15 5 C10.05 5 5.1 5 0 5 C0 3.35 0 1.7 0 0 Z " fill="#040C0B" transform="translate(425,193)"/>
<path d="M0 0 C0.99 0 1.98 0 3 0 C3 6.27 3 12.54 3 19 C1.12815629 15.25631258 0.76000233 14.1599209 0.875 10.25 C0.89304688 9.45078125 0.91109375 8.6515625 0.9296875 7.828125 C0.95289063 7.22484375 0.97609375 6.6215625 1 6 C-1.31 6.33 -3.62 6.66 -6 7 C-6 12.61 -6 18.22 -6 24 C-6.33 24 -6.66 24 -7 24 C-7 17.73 -7 11.46 -7 5 C-4.69 5 -2.38 5 0 5 C0 3.35 0 1.7 0 0 Z " fill="#010E0C" transform="translate(152,177)"/>
<path d="M0 0 C3.375 -0.125 3.375 -0.125 7 0 C7.66 0.66 8.32 1.32 9 2 C8.625 4.625 8.625 4.625 8 7 C6.02 7 4.04 7 2 7 C2 8.65 2 10.3 2 12 C1.34 12 0.68 12 0 12 C0 8.04 0 4.08 0 0 Z " fill="#86ADA8" transform="translate(141,240)"/>
<path d="M0 0 C1.08667969 0.01804688 2.17335938 0.03609375 3.29296875 0.0546875 C4.54013672 0.08949219 4.54013672 0.08949219 5.8125 0.125 C5.4825 0.785 5.1525 1.445 4.8125 2.125 C2.55303416 2.48057331 0.3225223 2.56830506 -1.9609375 2.68359375 C-4.62619642 3.21196964 -5.56252191 3.97939786 -7.1875 6.125 C-7.26392709 8.23649645 -7.26392709 8.23649645 -6.1875 10.125 C-3.1343709 12.27349825 0.16795149 12.62801611 3.8125 13.125 C3.4825 13.785 3.1525 14.445 2.8125 15.125 C-1.44309347 14.43392072 -5.15148765 13.79100794 -8.8125 11.4375 C-10.1875 9.125 -10.1875 9.125 -10.125 5.5 C-8.51249687 -0.30501127 -5.38635419 -0.11583557 0 0 Z " fill="#A4DED4" transform="translate(353.1875,177.875)"/>
<path d="M0 0 C2.64 0 5.28 0 8 0 C8.625 2.875 8.625 2.875 9 6 C7 8 7 8 3.375 8.125 C2.26125 8.08375 1.1475 8.0425 0 8 C0 5.36 0 2.72 0 0 Z " fill="#0D191A" transform="translate(189,182)"/>
<path d="M0 0 C1.32 0 2.64 0 4 0 C4 7.92 4 15.84 4 24 C2.68 24 1.36 24 0 24 C0 21.03 0 18.06 0 15 C0.66 15 1.32 15 2 15 C2.02686553 13.02090602 2.04633375 11.04171029 2.0625 9.0625 C2.07410156 7.96035156 2.08570313 6.85820312 2.09765625 5.72265625 C2.31262571 3.08552366 2.31262571 3.08552366 1 2 C1 3.98 1 5.96 1 8 C0.67 8 0.34 8 0 8 C0 5.36 0 2.72 0 0 Z " fill="#A2EBE0" transform="translate(173,178)"/>
<path d="M0 0 C0.66 0 1.32 0 2 0 C2 1.65 2 3.3 2 5 C3.98 5 5.96 5 8 5 C8 3.35 8 1.7 8 0 C8.66 0 9.32 0 10 0 C10 3.96 10 7.92 10 12 C9.34 12 8.68 12 8 12 C8 10.35 8 8.7 8 7 C6.02 7 4.04 7 2 7 C2 8.65 2 10.3 2 12 C1.34 12 0.68 12 0 12 C0 8.04 0 4.08 0 0 Z " fill="#82B8B3" transform="translate(198,240)"/>
<path d="M0 0 C2.475 0.99 2.475 0.99 5 2 C4.40049704 5.68266103 3.75241109 9.34543185 3 13 C2.01 12.67 1.02 12.34 0 12 C0 10 0 10 1 9 C-0.32 8.67 -1.64 8.34 -3 8 C-2.45276317 4.62537285 -1.9451 2.91765 0 0 Z " fill="#10211E" transform="translate(294,173)"/>
<path d="M0 0 C0.66 0 1.32 0 2 0 C2.67057887 1.7902061 3.3363469 3.58221489 4 5.375 C4.556875 6.87160156 4.556875 6.87160156 5.125 8.3984375 C6 11 6 11 6 13 C5.34 13 4.68 13 4 13 C3.67 12.01 3.34 11.02 3 10 C1.35 9.67 -0.3 9.34 -2 9 C-2.33 9.99 -2.66 10.98 -3 12 C-4.21386936 8.35839192 -3.6674695 7.66834531 -2.0625 4.3125 C-1.49208984 3.10013672 -1.49208984 3.10013672 -0.91015625 1.86328125 C-0.60980469 1.24839844 -0.30945313 0.63351563 0 0 Z " fill="#92C3BD" transform="translate(164,240)"/>
<path d="M0 0 C0.66 0.33 1.32 0.66 2 1 C2 1.66 2 2.32 2 3 C1.34 3 0.68 3 0 3 C0.226875 3.70125 0.45375 4.4025 0.6875 5.125 C1.09532639 8.87700275 -0.13622707 10.79431057 -2 14 C-2.66 14 -3.32 14 -4 14 C-5.76462683 10.91190305 -6 9.76687864 -6 6 C-4.6875 4.4375 -4.6875 4.4375 -3 3 C-2.1646875 2.1646875 -2.1646875 2.1646875 -1.3125 1.3125 C-0.879375 0.879375 -0.44625 0.44625 0 0 Z " fill="#98EBE0" transform="translate(234,188)"/>
<path d="M0 0 C2.97 0 5.94 0 9 0 C9 0.66 9 1.32 9 2 C6.69 2 4.38 2 2 2 C2 2.99 2 3.98 2 5 C3.98 5 5.96 5 8 5 C8 5.66 8 6.32 8 7 C6.02 7 4.04 7 2 7 C2 8.32 2 9.64 2 11 C4.31 11 6.62 11 9 11 C9 11.33 9 11.66 9 12 C6.03 12 3.06 12 0 12 C0 8.04 0 4.08 0 0 Z " fill="#85B6B0" transform="translate(409,240)"/>
<path d="M0 0 C2.97 0 5.94 0 9 0 C9 0.66 9 1.32 9 2 C6.69 2 4.38 2 2 2 C2 2.99 2 3.98 2 5 C3.98 5 5.96 5 8 5 C8 5.66 8 6.32 8 7 C6.02 7 4.04 7 2 7 C2 8.32 2 9.64 2 11 C4.31 11 6.62 11 9 11 C9 11.33 9 11.66 9 12 C6.03 12 3.06 12 0 12 C0 8.04 0 4.08 0 0 Z " fill="#83ACA8" transform="translate(337,240)"/>
<path d="M0 0 C1.9375 0.75 1.9375 0.75 4 2 C4.75 4.125 4.75 4.125 5 6 C-1.07027358 8.1583195 -6.59370576 8.20852314 -13 8 C-12.01 7.67 -11.02 7.34 -10 7 C-10 6.34 -10 5.68 -10 5 C-7.69 5 -5.38 5 -3 5 C-2.67 4.34 -2.34 3.68 -2 3 C-1.34 3 -0.68 3 0 3 C0 2.01 0 1.02 0 0 Z " fill="#8DD8CB" transform="translate(314,205)"/>
<path d="M0 0 C2.97 0 5.94 0 9 0 C9 0.66 9 1.32 9 2 C6.69 2 4.38 2 2 2 C2 2.99 2 3.98 2 5 C3.98 5 5.96 5 8 5 C8 5.66 8 6.32 8 7 C6.02 7 4.04 7 2 7 C2 8.32 2 9.64 2 11 C3.98 11 5.96 11 8 11 C8 11.33 8 11.66 8 12 C5.36 12 2.72 12 0 12 C0 8.04 0 4.08 0 0 Z " fill="#7FB0A9" transform="translate(468,240)"/>
<path d="M0 0 C5.445 1.485 5.445 1.485 11 3 C10.01 3.33 9.02 3.66 8 4 C7.67 4.99 7.34 5.98 7 7 C-0.625 6.125 -0.625 6.125 -4 5 C-4 4.34 -4 3.68 -4 3 C-2.68 2.67 -1.36 2.34 0 2 C0 1.34 0 0.68 0 0 Z " fill="#0F2220" transform="translate(308,188)"/>
<path d="M0 0 C2.72647685 2.35468455 3.98756342 4.5408417 5 8 C4.625 10.3125 4.625 10.3125 4 12 C3.67 11.34 3.34 10.68 3 10 C0.58354218 9.83312552 0.58354218 9.83312552 -2 10 C-2.66 10.66 -3.32 11.32 -4 12 C-3.45660208 7.43545749 -2.20536179 4.0271824 0 0 Z " fill="#628F89" transform="translate(432,240)"/>
<path d="M0 0 C0.99 0.33 1.98 0.66 3 1 C3 4.63 3 8.26 3 12 C-1 13 -1 13 -3 13 C-3 11.35 -3 9.7 -3 8 C-2.01 7.67 -1.02 7.34 0 7 C-0.33 6.67 -0.66 6.34 -1 6 C-1.125 3.5 -1.125 3.5 -1 1 C-0.67 0.67 -0.34 0.34 0 0 Z " fill="#050D0A" transform="translate(440,177)"/>
<path d="M0 0 C3.5625 0.25 3.5625 0.25 7 1 C8.52491998 4.04983996 8.23562548 6.6423369 8 10 C6.875 12 6.875 12 5 13 C1.9375 12.875 1.9375 12.875 -1 12 C-3 9 -3 9 -2.75 5.4375 C-2 2 -2 2 0 0 Z M-1 3 C-1.41666667 6 -1.41666667 6 -1 9 C-0.34 9.66 0.32 10.32 1 11 C4.30683466 10.71016731 4.30683466 10.71016731 7 9 C6.71269945 6.66055264 6.38063221 4.3260857 6 2 C2.51418144 0.7979936 2.32007656 0.78661563 -1 3 Z " fill="#A3D1CA" transform="translate(252,240)"/>
<path d="M0 0 C0.66 0 1.32 0 2 0 C2.33 1.98 2.66 3.96 3 6 C-0.22448147 8.14965431 -0.79930965 8.22152284 -4.44921875 7.9765625 C-5.29677734 7.925 -6.14433594 7.8734375 -7.01757812 7.8203125 C-7.89865234 7.75585938 -8.77972656 7.69140625 -9.6875 7.625 C-10.58017578 7.56828125 -11.47285156 7.5115625 -12.39257812 7.453125 C-14.59587413 7.31173702 -16.79801539 7.16034022 -19 7 C-19 6.67 -19 6.34 -19 6 C-13.06 6 -7.12 6 -1 6 C-1 5.01 -1 4.02 -1 3 C-5.29 3 -9.58 3 -14 3 C-14 2.67 -14 2.34 -14 2 C-9.38 1.67 -4.76 1.34 0 1 C0 0.67 0 0.34 0 0 Z " fill="#466663" transform="translate(439,196)"/>
<path d="M0 0 C4.29 0 8.58 0 13 0 C13 1.32 13 2.64 13 4 C8.71 4 4.42 4 0 4 C0 2.68 0 1.36 0 0 Z " fill="#020808" transform="translate(252,193)"/>
<path d="M0 0 C1.125 1.6875 1.125 1.6875 2 4 C1.125 6.75 1.125 6.75 0 9 C1.98 8.01 3.96 7.02 6 6 C5.45276317 9.37462715 4.9451 11.08235 3 14 C0.69 13.34 -1.62 12.68 -4 12 C-4 11.01 -4 10.02 -4 9 C-3.525625 8.566875 -3.05125 8.13375 -2.5625 7.6875 C-0.37899018 5.3293094 -0.34733049 3.12597439 0 0 Z " fill="#0F1B1A" transform="translate(203,184)"/>
<path d="M0 0 C0.33 0 0.66 0 1 0 C1.33 4.62 1.66 9.24 2 14 C1.67 13.34 1.34 12.68 1 12 C0.34 12 -0.32 12 -1 12 C-1.33 11.34 -1.66 10.68 -2 10 C-2.66 10.66 -3.32 11.32 -4 12 C-4.1953125 9.94921875 -4.390625 7.8984375 -4.5859375 5.84765625 C-4.72257812 5.23792969 -4.85921875 4.62820312 -5 4 C-5.66 3.67 -6.32 3.34 -7 3 C-4.69 3 -2.38 3 0 3 C0 2.01 0 1.02 0 0 Z " fill="#1D312C" transform="translate(367,186)"/>
<path d="M0 0 C-0.33 0.99 -0.66 1.98 -1 3 C-1.66 2.34 -2.32 1.68 -3 1 C-5.10820797 1.3185177 -5.10820797 1.3185177 -7 2 C-7 4.31 -7 6.62 -7 9 C-5.35 9.33 -3.7 9.66 -2 10 C-1.67 9.01 -1.34 8.02 -1 7 C-0.4375 8.9375 -0.4375 8.9375 0 11 C-0.33 11.33 -0.66 11.66 -1 12 C-4.4375 11.75 -4.4375 11.75 -8 11 C-10.31282587 7.53076119 -10.42478586 6.07794425 -10 2 C-7.64463991 -2.2950684 -4.23605512 -0.87918125 0 0 Z " fill="#92B2AE" transform="translate(457,241)"/>
<path d="M0 0 C0.99 0.495 0.99 0.495 2 1 C1.67 2.32 1.34 3.64 1 5 C2.65 5.33 4.3 5.66 6 6 C6 6.99 6 7.98 6 9 C6.99 9 7.98 9 9 9 C9.33 6.36 9.66 3.72 10 1 C10.33 1 10.66 1 11 1 C11 3.97 11 6.94 11 10 C7.37 10 3.74 10 0 10 C0 6.7 0 3.4 0 0 Z " fill="#040A09" transform="translate(161,177)"/>
<path d="M0 0 C3 1 6 2 9 3 C8.01 3.495 8.01 3.495 7 4 C6.34444881 6.52733235 6.34444881 6.52733235 6 9 C5.01 9.33 4.02 9.66 3 10 C2.34 8.35 1.68 6.7 1 5 C0.34 5 -0.32 5 -1 5 C-0.67 3.35 -0.34 1.7 0 0 Z " fill="#334D4A" transform="translate(308,178)"/>
<path d="M0 0 C0.66 0 1.32 0 2 0 C2 6.93 2 13.86 2 21 C1.67 21 1.34 21 1 21 C0.896875 19.7625 0.79375 18.525 0.6875 17.25 C0.34661093 14.31112299 0.162173 13.21022425 -1.6875 10.8125 C-2.120625 10.214375 -2.55375 9.61625 -3 9 C-2.25 6.5 -2.25 6.5 -1 4 C-0.64141484 2.67323492 -0.2981424 1.34164079 0 0 Z " fill="#040708" transform="translate(244,177)"/>
<path d="M0 0 C3.96 0 7.92 0 12 0 C11.67 1.32 11.34 2.64 11 4 C7.37 4 3.74 4 0 4 C0 2.68 0 1.36 0 0 Z " fill="#04090B" transform="translate(474,183)"/>
<path d="M0 0 C4.62 0 9.24 0 14 0 C14 0.33 14 0.66 14 1 C9.71 1 5.42 1 1 1 C1 2.32 1 3.64 1 5 C1.99 4.67 2.98 4.34 4 4 C3.67 3.34 3.34 2.68 3 2 C4.65 2 6.3 2 8 2 C8.33 2.66 8.66 3.32 9 4 C11.02463255 4.65213292 11.02463255 4.65213292 13 5 C12.67 6.32 12.34 7.64 12 9 C12 8.01 12 7.02 12 6 C8.04 6 4.08 6 0 6 C0 4.02 0 2.04 0 0 Z " fill="#304C47" transform="translate(424,182)"/>
<path d="M0 0 C2.31 0.33 4.62 0.66 7 1 C7.33 1.99 7.66 2.98 8 4 C8.66 4 9.32 4 10 4 C10 4.99 10 5.98 10 7 C8.68 7.33 7.36 7.66 6 8 C5.34 7.01 4.68 6.02 4 5 C1.43717258 4.27034634 1.43717258 4.27034634 -1 4 C-0.67 2.68 -0.34 1.36 0 0 Z " fill="#0B2220" transform="translate(311,172)"/>
<path d="M0 0 C4.39158329 1.4638611 4.87947433 3.97831338 7 8 C7.33 5.36 7.66 2.72 8 0 C8.33 0 8.66 0 9 0 C9 3.96 9 7.92 9 12 C8.34 12 7.68 12 7 12 C5.7109375 10.25 5.7109375 10.25 4.375 8 C3.92898438 7.2575 3.48296875 6.515 3.0234375 5.75 C2.68570312 5.1725 2.34796875 4.595 2 4 C1.67 6.64 1.34 9.28 1 12 C0.67 12 0.34 12 0 12 C0 8.04 0 4.08 0 0 Z " fill="#A0D4CB" transform="translate(317,240)"/>
<path d="M0 0 C6.6 0.33 13.2 0.66 20 1 C20 1.33 20 1.66 20 2 C16.92382812 2.29296875 16.92382812 2.29296875 13.84765625 2.5859375 C13.23792969 2.72257813 12.62820313 2.85921875 12 3 C11.67 3.66 11.34 4.32 11 5 C8.9375 5.625 8.9375 5.625 7 6 C7 5.34 7 4.68 7 4 C5.68 3.67 4.36 3.34 3 3 C3 2.34 3 1.68 3 1 C2.01 0.67 1.02 0.34 0 0 Z " fill="#040A0C" transform="translate(344,202)"/>
<path d="M0 0 C1.65 0.33 3.3 0.66 5 1 C4.33333333 3 3.66666667 5 3 7 C3.66 7 4.32 7 5 7 C4.67 7.99 4.34 8.98 4 10 C3.01 9.67 2.02 9.34 1 9 C-1.6569191 9.87914688 -1.6569191 9.87914688 -4 11 C-4.33 10.01 -4.66 9.02 -5 8 C-3.35 8 -1.7 8 0 8 C0 5.36 0 2.72 0 0 Z " fill="#020E0A" transform="translate(449,195)"/>
<path d="M0 0 C1.23556641 0.01740234 1.23556641 0.01740234 2.49609375 0.03515625 C3.32238281 0.04417969 4.14867187 0.05320313 5 0.0625 C5.63808594 0.07410156 6.27617187 0.08570313 6.93359375 0.09765625 C6.93359375 1.08765625 6.93359375 2.07765625 6.93359375 3.09765625 C6.27359375 2.76765625 5.61359375 2.43765625 4.93359375 2.09765625 C2.93399363 2.05766425 0.93312133 2.05418826 -1.06640625 2.09765625 C-1.06640625 3.08765625 -1.06640625 4.07765625 -1.06640625 5.09765625 C1.57359375 5.75765625 4.21359375 6.41765625 6.93359375 7.09765625 C6.93359375 7.75765625 6.93359375 8.41765625 6.93359375 9.09765625 C5.47436682 8.98356032 4.01618777 8.85600081 2.55859375 8.72265625 C1.74648438 8.65304688 0.934375 8.5834375 0.09765625 8.51171875 C-2.06640625 8.09765625 -2.06640625 8.09765625 -4.06640625 6.09765625 C-3.34205084 0.15794191 -3.34205084 0.15794191 0 0 Z " fill="#A0E5D9" transform="translate(351.06640625,180.90234375)"/>
<path d="M0 0 C0.33 0 0.66 0 1 0 C1 3.96 1 7.92 1 12 C-0.32 12.33 -1.64 12.66 -3 13 C-4.06853411 8.54777453 -4.36117384 6.66215204 -2.125 2.5625 C-1.42375 1.716875 -0.7225 0.87125 0 0 Z " fill="#040608" transform="translate(467,177)"/>
<path d="M0 0 C4.62 0 9.24 0 14 0 C14 0.33 14 0.66 14 1 C11.36 1 8.72 1 6 1 C6 1.99 6 2.98 6 4 C7.32 3.67 8.64 3.34 10 3 C9.67 3.66 9.34 4.32 9 5 C6.03 5 3.06 5 0 5 C0 3.35 0 1.7 0 0 Z " fill="#020A0A" transform="translate(252,182)"/>
<path d="M0 0 C4.95 0 9.9 0 15 0 C15.33 0.99 15.66 1.98 16 3 C9.07 2.505 9.07 2.505 2 2 C1.67 3.65 1.34 5.3 1 7 C0.67 7 0.34 7 0 7 C0 4.69 0 2.38 0 0 Z " fill="#9BE9DA" transform="translate(368,178)"/>
<path d="M0 0 C3.3 0 6.6 0 10 0 C10 0.66 10 1.32 10 2 C8.68 2 7.36 2 6 2 C6 5.3 6 8.6 6 12 C5.34 12 4.68 12 4 12 C4 8.7 4 5.4 4 2 C2.68 2 1.36 2 0 2 C0 1.34 0 0.68 0 0 Z " fill="#91C0B9" transform="translate(230,240)"/>
<path d="M0 0 C0.66 0 1.32 0 2 0 C2.33 2.64 2.66 5.28 3 8 C5.31 8 7.62 8 10 8 C9.67 6.68 9.34 5.36 9 4 C9.66 3.67 10.32 3.34 11 3 C11 5.31 11 7.62 11 10 C7.37 10 3.74 10 0 10 C0 6.7 0 3.4 0 0 Z " fill="#010C0B" transform="translate(397,178)"/>
<path d="M0 0 C3.0625 0.1875 3.0625 0.1875 5.0625 2.1875 C4.6875 4.3125 4.6875 4.3125 4.0625 6.1875 C1.7525 5.8575 -0.5575 5.5275 -2.9375 5.1875 C-3.5 3.25 -3.5 3.25 -3.9375 1.1875 C-2.9375 0.1875 -2.9375 0.1875 0 0 Z " fill="#0D1B1C" transform="translate(352.9375,181.8125)"/>
<path d="M0 0 C3.63 0 7.26 0 11 0 C11 1.65 11 3.3 11 5 C10.01 5 9.02 5 8 5 C8 4.34 8 3.68 8 3 C5.36 3 2.72 3 0 3 C0 2.01 0 1.02 0 0 Z " fill="#010B09" transform="translate(161,193)"/>
<path d="M0 0 C2.31 0.33 4.62 0.66 7 1 C6.67 2.65 6.34 4.3 6 6 C4.02 6 2.04 6 0 6 C0 4.02 0 2.04 0 0 Z " fill="#050905" transform="translate(449,184)"/>
<path d="M0 0 C0.33 0.99 0.66 1.98 1 3 C1.66 3.33 2.32 3.66 3 4 C1.35 4.33 -0.3 4.66 -2 5 C-2.33 6.32 -2.66 7.64 -3 9 C-4.65 9 -6.3 9 -8 9 C-7.34 8.67 -6.68 8.34 -6 8 C-5.34444881 5.47266765 -5.34444881 5.47266765 -5 3 C-4.34 3 -3.68 3 -3 3 C-3 2.34 -3 1.68 -3 1 C-2.01 0.67 -1.02 0.34 0 0 Z " fill="#121D1B" transform="translate(441,244)"/>
<path d="M0 0 C2 3 2 3 2 5 C0.68 5 -0.64 5 -2 5 C-2 5.66 -2 6.32 -2 7 C-3.32 7 -4.64 7 -6 7 C-6 6.34 -6 5.68 -6 5 C-8.31 4.67 -10.62 4.34 -13 4 C-12.67 3.34 -12.34 2.68 -12 2 C-11.484375 2.165 -10.96875 2.33 -10.4375 2.5 C-7.26636124 3.15049 -4.22781666 3.0620734 -1 3 C-0.67 2.01 -0.34 1.02 0 0 Z " fill="#96DBCE" transform="translate(358,194)"/>
<path d="M0 0 C4.95 0.33 9.9 0.66 15 1 C15 1.66 15 2.32 15 3 C9.72 3 4.44 3 -1 3 C-0.67 2.01 -0.34 1.02 0 0 Z " fill="#93EEE2" transform="translate(249,198)"/>
<path d="M0 0 C2.475 0.495 2.475 0.495 5 1 C5.33 1.99 5.66 2.98 6 4 C5.01 5.485 5.01 5.485 4 7 C2.68 7 1.36 7 0 7 C0 4.69 0 2.38 0 0 Z " fill="#020908" transform="translate(374,183)"/>
<path d="M0 0 C2.86697492 1.28519565 4.97607712 2.57129254 7 5 C7 5.66 7 6.32 7 7 C5.00045254 7.04254356 2.99958364 7.04080783 1 7 C0 6 0 6 -0.0625 2.9375 C-0.041875 1.968125 -0.02125 0.99875 0 0 Z " fill="#9CE9DC" transform="translate(197,195)"/>
<path d="M0 0 C0.66 0.99 1.32 1.98 2 3 C1.01 3.495 1.01 3.495 0 4 C-0.40729228 6.32156597 -0.74438677 8.6568787 -1 11 C-1.66 11 -2.32 11 -3 11 C-3.33 12.32 -3.66 13.64 -4 15 C-4.66 15 -5.32 15 -6 15 C-5.39644592 11.14974121 -4.23227397 8.13898841 -2.4375 4.6875 C-1.98246094 3.80449219 -1.52742187 2.92148438 -1.05859375 2.01171875 C-0.53458984 1.01591797 -0.53458984 1.01591797 0 0 Z " fill="#071814" transform="translate(243,178)"/>
<path d="M0 0 C4 5 4 5 8 10 C6.68 10.33 5.36 10.66 4 11 C3.34 10.01 2.68 9.02 2 8 C1.01 8.495 1.01 8.495 0 9 C0 6.03 0 3.06 0 0 Z " fill="#112828" transform="translate(298,243)"/>
<path d="M0 0 C2.475 0.495 2.475 0.495 5 1 C5.33 2.32 5.66 3.64 6 5 C6 4.34 6 3.68 6 3 C6.66 3 7.32 3 8 3 C7.67 3.99 7.34 4.98 7 6 C4.69 6 2.38 6 0 6 C0 4.02 0 2.04 0 0 Z " fill="#040707" transform="translate(189,182)"/>
<path d="M0 0 C2.475 0.99 2.475 0.99 5 2 C5 4.31 5 6.62 5 9 C4.360625 8.67 3.72125 8.34 3.0625 8 C1.23205433 6.92728775 1.23205433 6.92728775 0 7 C0 4.69 0 2.38 0 0 Z " fill="#060807" transform="translate(217,182)"/>
<path d="M0 0 C1.65 0 3.3 0 5 0 C3.68 0.33 2.36 0.66 1 1 C1.83333333 3.16666667 1.83333333 3.16666667 4 4 C4 6.31 4 8.62 4 11 C3.01 11.495 3.01 11.495 2 12 C1.34 11.67 0.68 11.34 0 11 C0 7.37 0 3.74 0 0 Z " fill="#86CABE" transform="translate(172,177)"/>
<path d="M0 0 C2.31 0 4.62 0 7 0 C6.34 1.32 5.68 2.64 5 4 C3.68 4 2.36 4 1 4 C1 4.66 1 5.32 1 6 C0.01 6 -0.98 6 -2 6 C-1.34 4.02 -0.68 2.04 0 0 Z " fill="#92D1C7" transform="translate(237,177)"/>
<path d="M0 0 C3.3 0 6.6 0 10 0 C8.68 1.32 7.36 2.64 6 4 C4.68 3.34 3.36 2.68 2 2 C1.34 3.32 0.68 4.64 0 6 C0 4.02 0 2.04 0 0 Z " fill="#040B0A" transform="translate(374,196)"/>
<path d="M0 0 C2.97 0 5.94 0 9 0 C9 0.66 9 1.32 9 2 C7.68 2 6.36 2 5 2 C5 5.3 5 8.6 5 12 C4.67 12 4.34 12 4 12 C4 8.7 4 5.4 4 2 C2.68 2 1.36 2 0 2 C0 1.34 0 0.68 0 0 Z " fill="#98C7C0" transform="translate(179,240)"/>
<path d="M0 0 C4.29 0 8.58 0 13 0 C11.68 0.33 10.36 0.66 9 1 C9 1.99 9 2.98 9 4 C8.01 3.67 7.02 3.34 6 3 C6.33 2.67 6.66 2.34 7 2 C5.68 2 4.36 2 3 2 C3.33 2.66 3.66 3.32 4 4 C2.68 4 1.36 4 0 4 C0 2.68 0 1.36 0 0 Z " fill="#010B0A" transform="translate(425,183)"/>
<path d="M0 0 C0.99 0.33 1.98 0.66 3 1 C3 1.66 3 2.32 3 3 C3.66 3 4.32 3 5 3 C5 3.66 5 4.32 5 5 C5.66 5 6.32 5 7 5 C7.33 4.34 7.66 3.68 8 3 C8.66 3.66 9.32 4.32 10 5 C9.34 5 8.68 5 8 5 C8 5.99 8 6.98 8 8 C4.88801935 6.50163895 1.9465385 4.80066242 -1 3 C-0.67 2.01 -0.34 1.02 0 0 Z " fill="#081715" transform="translate(316,166)"/>
<path d="M0 0 C0.66 0 1.32 0 2 0 C2 2.97 2 5.94 2 9 C0.35 8.67 -1.3 8.34 -3 8 C-2.505 7.05125 -2.01 6.1025 -1.5 5.125 C0.14424369 2.27721834 0.14424369 2.27721834 0 0 Z M-3 9 C-1 10 -1 10 -1 10 Z " fill="#060A0B" transform="translate(466,240)"/>
<path d="M0 0 C0.33 0.66 0.66 1.32 1 2 C3.64 1.67 6.28 1.34 9 1 C8.01 1.33 7.02 1.66 6 2 C5.67 2.99 5.34 3.98 5 5 C2.36 4.67 -0.28 4.34 -3 4 C-2.01 3.67 -1.02 3.34 0 3 C0 2.01 0 1.02 0 0 Z " fill="#466762" transform="translate(310,190)"/>
<path d="M0 0 C0.99 0 1.98 0 3 0 C3.36923077 6.4 3.36923077 6.4 1.5 9.4375 C1.005 9.953125 0.51 10.46875 0 11 C-0.95308021 7.29357698 -0.92648564 4.70594256 0 1 C0 0.67 0 0.34 0 0 Z " fill="#0A1A1A" transform="translate(319,180)"/>
<path d="M0 0 C0 0.33 0 0.66 0 1 C-1.98 1 -3.96 1 -6 1 C-6.33 2.65 -6.66 4.3 -7 6 C-8.32 6.33 -9.64 6.66 -11 7 C-10.34 6.34 -9.68 5.68 -9 5 C-8.83312552 2.41645782 -8.83312552 2.41645782 -9 0 C-5.93109813 -1.53445094 -3.29905734 -0.54984289 0 0 Z " fill="#4E726E" transform="translate(313,170)"/>
<path d="M0 0 C0.66 0 1.32 0 2 0 C2.2475 0.94875 2.495 1.8975 2.75 2.875 C3.6857077 6.08693191 3.6857077 6.08693191 6.125 7.375 C6.74375 7.58125 7.3625 7.7875 8 8 C6.25 8.75 6.25 8.75 4 9 C1.75 7.375 1.75 7.375 0 5 C-0.25 2.25 -0.25 2.25 0 0 Z " fill="#84A8A2" transform="translate(249,244)"/>
<path d="M0 0 C0.33 1.32 0.66 2.64 1 4 C2.65 3.67 4.3 3.34 6 3 C6.33 4.65 6.66 6.3 7 8 C6.34 7.34 5.68 6.68 5 6 C2.5 5.66666667 2.5 5.66666667 0 6 C-0.66 6.66 -1.32 7.32 -2 8 C-1.125 2.25 -1.125 2.25 0 0 Z " fill="#A4D3CB" transform="translate(430,244)"/>
<path d="M0 0 C2.475 0.495 2.475 0.495 5 1 C5 1.99 5 2.98 5 4 C4.34 4 3.68 4 3 4 C2.67 4.66 2.34 5.32 2 6 C1.34 6 0.68 6 0 6 C0 4.02 0 2.04 0 0 Z " fill="#070C10" transform="translate(449,243)"/>
<path d="M0 0 C0.66 0.33 1.32 0.66 2 1 C1.79375 1.598125 1.5875 2.19625 1.375 2.8125 C0.69328085 5.28450846 0.69328085 5.28450846 3 8 C-0.875 7.125 -0.875 7.125 -2 6 C-2.04063832 4.33382885 -2.042721 2.66611905 -2 1 C-1.34 0.67 -0.68 0.34 0 0 Z " fill="#040D0D" transform="translate(253,243)"/>
<path d="M0 0 C1.98 0 3.96 0 6 0 C5.67 1.32 5.34 2.64 5 4 C3.35 4 1.7 4 0 4 C0 2.68 0 1.36 0 0 Z " fill="#091A1C" transform="translate(391,242)"/>
<path d="M0 0 C0.66 0 1.32 0 2 0 C2.93423645 3.01031744 3.04449911 3.86650268 2 7 C1.01 7 0.02 7 -1 7 C-1.625 5.1875 -1.625 5.1875 -2 3 C-1.34 2.01 -0.68 1.02 0 0 Z " fill="#567D7A" transform="translate(164,240)"/>
<path d="M0 0 C2.15377564 2.62198774 3.40072174 4.64404172 4 8 C2.68 8 1.36 8 0 8 C0.33 8.99 0.66 9.98 1 11 C0.34 11 -0.32 11 -1 11 C-1.33 10.01 -1.66 9.02 -2 8 C-1.01 7.67 -0.02 7.34 1 7 C0.34 5.02 -0.32 3.04 -1 1 C-0.67 0.67 -0.34 0.34 0 0 Z " fill="#0C1B19" transform="translate(226,194)"/>
<path d="M0 0 C0.99 0.33 1.98 0.66 3 1 C2.34 2.98 1.68 4.96 1 7 C0.67 6.34 0.34 5.68 0 5 C-2.64 5 -5.28 5 -8 5 C-8 4.67 -8 4.34 -8 4 C-5.69 4 -3.38 4 -1 4 C-0.67 2.68 -0.34 1.36 0 0 Z " fill="#141F21" transform="translate(419,246)"/>
<path d="M0 0 C0.99 0.33 1.98 0.66 3 1 C1.02 3.97 1.02 3.97 -1 7 C-1.66 6.01 -2.32 5.02 -3 4 C-2.67 3.01 -2.34 2.02 -2 1 C-1.34 0.67 -0.68 0.34 0 0 Z " fill="#16231F" transform="translate(464,177)"/>
<path d="M0 0 C1.65 0 3.3 0 5 0 C5 0.99 5 1.98 5 3 C3.02 3.33 1.04 3.66 -1 4 C-0.67 2.68 -0.34 1.36 0 0 Z " fill="#041413" transform="translate(430,249)"/>
<path d="M0 0 C2.31 0 4.62 0 7 0 C7 0.99 7 1.98 7 3 C4.69 3 2.38 3 0 3 C0 2.01 0 1.02 0 0 Z " fill="#010F12" transform="translate(339,247)"/>
<path d="M0 0 C0.625 1.8125 0.625 1.8125 1 4 C0.01 5.485 0.01 5.485 -1 7 C-1.99 6.34 -2.98 5.68 -4 5 C-4 4.01 -4 3.02 -4 2 C-2.68 1.34 -1.36 0.68 0 0 Z " fill="#517874" transform="translate(461,191)"/>
<path d="M0 0 C0.99 0 1.98 0 3 0 C3 2.97 3 5.94 3 9 C2.01 8.67 1.02 8.34 0 8 C0 5.36 0 2.72 0 0 Z " fill="#88C3B6" transform="translate(322,178)"/>
<path d="M0 0 C0.33 1.32 0.66 2.64 1 4 C1.66 4 2.32 4 3 4 C3 5.65 3 7.3 3 9 C2.01 9.33 1.02 9.66 0 10 C0 6.7 0 3.4 0 0 Z " fill="#051414" transform="translate(236,242)"/>
<path d="M0 0 C0 2.31 0 4.62 0 7 C-0.66 6.67 -1.32 6.34 -2 6 C-2 5.01 -2 4.02 -2 3 C-3.65 2.67 -5.3 2.34 -7 2 C-7 1.67 -7 1.34 -7 1 C-1.125 0 -1.125 0 0 0 Z " fill="#031413" transform="translate(150,246)"/>
<path d="M0 0 C1.65 0 3.3 0 5 0 C5 1.32 5 2.64 5 4 C3.35 4 1.7 4 0 4 C0 2.68 0 1.36 0 0 Z " fill="#020C0F" transform="translate(143,242)"/>
<path d="M0 0 C0.66 0.33 1.32 0.66 2 1 C1.01 2.98 0.02 4.96 -1 7 C-1.66 7 -2.32 7 -3 7 C-3.625 5.125 -3.625 5.125 -4 3 C-3.34 2.34 -2.68 1.68 -2 1 C-1.34 1.33 -0.68 1.66 0 2 C0 1.34 0 0.68 0 0 Z " fill="#94DACD" transform="translate(233,195)"/>
<path d="M0 0 C0.99 0.33 1.98 0.66 3 1 C3 2.32 3 3.64 3 5 C0.5625 4.625 0.5625 4.625 -2 4 C-2.33 3.34 -2.66 2.68 -3 2 C-2.01 1.34 -1.02 0.68 0 0 Z " fill="#061313" transform="translate(302,170)"/>
<path d="M0 0 C2.475 0.99 2.475 0.99 5 2 C5 2.66 5 3.32 5 4 C5.99 4.33 6.98 4.66 8 5 C5.69 4.67 3.38 4.34 1 4 C0.67 2.68 0.34 1.36 0 0 Z " fill="#2C4D44" transform="translate(114,264)"/>
<path d="M0 0 C2.64 0 5.28 0 8 0 C8.33 0.66 8.66 1.32 9 2 C5.67465243 3.10844919 3.37817425 2.84454356 0 2 C0 1.34 0 0.68 0 0 Z " fill="#050A0A" transform="translate(478,203)"/>
<path d="M0 0 C1.98 0 3.96 0 6 0 C6 0.99 6 1.98 6 3 C4.02 3 2.04 3 0 3 C0 2.01 0 1.02 0 0 Z " fill="#000C0F" transform="translate(470,242)"/>
<path d="M0 0 C0.66 0.66 1.32 1.32 2 2 C2.66 1.34 3.32 0.68 4 0 C4 1.98 4 3.96 4 6 C2.68 5.67 1.36 5.34 0 5 C0 3.35 0 1.7 0 0 Z " fill="#A3F4E6" transform="translate(444,193)"/>
<path d="M0 0 C1.65 0 3.3 0 5 0 C5 2.31 5 4.62 5 7 C3.29115995 5.37660195 1.62553283 3.70680947 0 2 C0 1.34 0 0.68 0 0 Z " fill="#010E0B" transform="translate(282,195)"/>
<path d="M0 0 C0.625 1.875 0.625 1.875 1 4 C0.34 4.66 -0.32 5.32 -1 6 C-1 5.34 -1 4.68 -1 4 C-2.98 4 -4.96 4 -7 4 C-3 0 -3 0 0 0 Z " fill="#0F1213" transform="translate(365,185)"/>
<path d="M0 0 C0.33 0 0.66 0 1 0 C1.35233161 5.37305699 1.35233161 5.37305699 1 8 C-1 10 -1 10 -3 11 C-2.67 9.35 -2.34 7.7 -2 6 C-1.34 6 -0.68 6 0 6 C0 4.02 0 2.04 0 0 Z " fill="#0C221E" transform="translate(287,179)"/>
<path d="M0 0 C1.875 0.3125 1.875 0.3125 4 1 C4.66 1.99 5.32 2.98 6 4 C2 4 2 4 0 3 C0 2.01 0 1.02 0 0 Z " fill="#9EDED8" transform="translate(316,170)"/>
<path d="M0 0 C3.3 0 6.6 0 10 0 C9.67 0.66 9.34 1.32 9 2 C6.125 2.8125 6.125 2.8125 3 3 C2.01 2.01 1.02 1.02 0 0 Z " fill="#9BE5DA" transform="translate(301,167)"/>
<path d="M0 0 C0.66 0 1.32 0 2 0 C1.44271087 3.34373475 0.64826111 6.03312999 -1 9 C-1.66 9 -2.32 9 -3 9 C-2.01 6.03 -1.02 3.06 0 0 Z " fill="#061616" transform="translate(428,243)"/>
<path d="M0 0 C0.33 0 0.66 0 1 0 C1 3.96 1 7.92 1 12 C0.01 11.67 -0.98 11.34 -2 11 C-2 10.34 -2 9.68 -2 9 C-1.34 9 -0.68 9 0 9 C0 6.03 0 3.06 0 0 Z " fill="#A7E1D5" transform="translate(305,240)"/>
<path d="M0 0 C1.9453125 -0.29296875 1.9453125 -0.29296875 4.125 -0.1875 C5.40375 -0.125625 6.6825 -0.06375 8 0 C8 0.66 8 1.32 8 2 C7.05125 2.12375 6.1025 2.2475 5.125 2.375 C1.91332809 2.71687177 1.91332809 2.71687177 0 5 C-0.66 4.34 -1.32 3.68 -2 3 C-1.34 2.01 -0.68 1.02 0 0 Z " fill="#253C39" transform="translate(197,201)"/>
<path d="M0 0 C2.31 0.33 4.62 0.66 7 1 C7 1.66 7 2.32 7 3 C6.01 3 5.02 3 4 3 C4 3.66 4 4.32 4 5 C1.48916886 3.74458443 1.12874554 2.49936512 0 0 Z " fill="#020D09" transform="translate(467,202)"/>
<path d="M0 0 C0.66 0 1.32 0 2 0 C2 0.66 2 1.32 2 2 C3.32 2.33 4.64 2.66 6 3 C6 3.66 6 4.32 6 5 C3.69 4.67 1.38 4.34 -1 4 C-0.67 2.68 -0.34 1.36 0 0 Z " fill="#78A39A" transform="translate(311,172)"/>
<path d="" fill="#AAFFFF" transform="translate(0,0)"/>
<path d="" fill="#FFFFFF" transform="translate(0,0)"/>
<path d="" fill="#FFFFFF" transform="translate(0,0)"/>
</svg>
